<?xml version="1.0" standalone="no"?>
<!DOCTYPE svg PUBLIC "-//W3C//DTD SVG 20010904//EN"
 "http://www.w3.org/TR/2001/REC-SVG-20010904/DTD/svg10.dtd">
<svg version="1.0" xmlns="http://www.w3.org/2000/svg"
 width="512.000000pt" height="512.000000pt" viewBox="0 0 512.000000 512.000000"
 preserveAspectRatio="xMidYMid meet">
<metadata>
Created by potrace 1.14, written by Peter Selinger 2001-2017
</metadata>
<g transform="translate(0.000000,512.000000) scale(0.100000,-0.100000)"
fill="#000000" stroke="none">
<path d="M820 3073 l0 -267 -47 48 c-66 67 -155 108 -248 114 -213 13 -378
-129 -430 -371 -16 -72 -11 -255 8 -322 60 -211 217 -341 406 -334 113 4 195
41 268 119 l43 45 0 -67 0 -68 159 0 158 0 0 685 0 685 -158 0 -159 0 0 -267z
m-125 -352 c89 -41 120 -109 120 -266 0 -154 -29 -221 -116 -265 -52 -27 -146
-22 -193 10 -34 24 -70 76 -84 122 -4 13 -7 75 -7 138 0 127 16 179 70 233 49
48 140 60 210 28z"/>
<path d="M1440 3210 l0 -130 158 0 157 0 0 128 0 127 -157 3 -158 3 0 -131z"/>
<path d="M2060 2655 l0 -685 158 0 158 0 0 69 -1 68 50 -51 c47 -49 113 -89
166 -103 13 -3 57 -7 97 -9 181 -8 319 93 393 286 24 64 30 98 34 195 8 220
-67 393 -211 487 -149 97 -373 66 -491 -67 -17 -19 -33 -35 -35 -35 -1 0 -3
118 -3 262 l0 263 -157 3 -158 3 0 -686z m639 48 c20 -16 47 -51 61 -79 22
-44 25 -61 25 -164 0 -129 -11 -174 -57 -226 -39 -44 -58 -54 -114 -61 -179
-22 -275 149 -224 399 14 69 47 114 105 144 68 35 150 30 204 -13z"/>
<path d="M3350 3210 l0 -130 158 0 158 0 0 130 0 130 -158 0 -158 0 0 -130z"/>
<path d="M4640 3073 l0 -268 -42 44 c-81 83 -179 124 -286 120 -188 -8 -323
-122 -388 -327 -22 -68 -25 -252 -7 -337 31 -147 125 -276 240 -331 46 -22 76
-28 141 -30 131 -5 225 33 309 126 l33 35 0 -67 0 -68 158 0 159 0 0 685 0
685 -159 0 -158 0 0 -267z m-120 -353 c77 -39 116 -119 119 -246 4 -148 -36
-241 -121 -285 -34 -17 -53 -20 -101 -16 -77 7 -120 36 -155 107 -24 49 -27
67 -29 165 -1 88 2 120 18 161 22 58 59 100 103 119 42 18 125 15 166 -5z"/>
<path d="M1441 2460 l0 -490 157 0 158 0 -1 490 0 490 -157 0 -157 0 0 -490z"/>
<path d="M3350 2460 l0 -491 158 3 157 3 1 488 0 487 -158 0 -158 0 0 -490z"/>
</g>
</svg>
